<mxfile host="app.diagrams.net" modified="2024-02-05T04:06:17.812Z" agent="Mozilla/5.0 (Windows NT 10.0; Win64; x64) AppleWebKit/537.36 (KHTML, like Gecko) Chrome/121.0.0.0 Safari/537.36" version="23.1.1" etag="h7dbBRQ5xs7RiikVUUyg" type="github">
  <diagram name="第 1 页" id="nts47vt3qjNIlo1PT5WZ">
    <mxGraphModel>
      <root>
        <mxCell id="0" />
        <mxCell id="1" parent="0" />
      </root>
    </mxGraphModel>
  </diagram>
</mxfile>
